<?xml version="1.0" encoding="UTF-8"?>
<svg xmlns="http://www.w3.org/2000/svg" viewBox="0 0 217.78 252.57">
  <defs>
    <style>
      .cls-1 {
        letter-spacing: .42em;
      }

      .cls-2 {
        stroke-width: 0px;
      }

      .cls-2, .cls-3 {
        fill: #0a0203;
        mix-blend-mode: multiply;
      }

      .cls-4 {
        letter-spacing: .42em;
      }

      .cls-5 {
        letter-spacing: .5em;
      }

      .cls-3 {
        font-family: PPNeueMontreal-Medium, 'PPNeueMontreal Medium';
        font-size: 16.75px;
        font-weight: 500;
      }

      .cls-6 {
        letter-spacing: .46em;
      }

      .cls-7 {
        letter-spacing: .48em;
      }

      .cls-8 {
        isolation: isolate;
      }
    </style>
  </defs>
  <g class="cls-8">
    <g id="Layer_1" data-name="Layer 1">
      <g>
        <path class="cls-2" d="m2.7,0h13.51v140.48H2.7V0Zm86.43,0h-13.51v140.48h13.51V0Zm-43.21,33.18c3.73,0,6.76-3.02,6.76-6.76s-3.02-6.76-6.76-6.76-6.76,3.02-6.76,6.76,3.02,6.76,6.76,6.76Zm171.77-15.63c-.09-.66-.27-1.31-.53-1.9-1.18-2.75-3.91-4.66-7.09-4.66-1.77,0-3.4.6-4.7,1.61h0s-.01,0-.01.01c-.11.08-.21.17-.31.25-1.26,1.04-6.04,5.26-10.79,12.73h0s-7.83,11.36-7.83,11.36l.05-.03c-6.98,9.2-12.19,20.24-16.13,31.25l-21.45,59.96-30.91-79.42h-14.13l32.37,81.66,5.83,15.3c-7.88,17.38-23.59,41.38-52.01,41.38-31.52,0-37.29-32.69-37.37-40.7V48.72h-13.51v98.25h.02c.45,17.17,19.02,41.92,50.86,41.92,30.09,0,46.87-23.45,56.76-48.44.68-1.7,25.98-72.32,25.98-72.32,3.11-8.69,9.34-23.55,20.11-35.17.93-.8,8.36-6.98,17.17-6.54h0s0,0,0,0c4.26,0,7.72-3.45,7.72-7.72,0-.39-.03-.78-.1-1.15Z"/>
        <text class="cls-3" transform="translate(0 248.38) scale(1.02 1)"><tspan class="cls-7" x="0" y="0">R</tspan><tspan class="cls-6" x="17.05" y="0">E</tspan><tspan class="cls-5" x="33" y="0">AL ES</tspan><tspan class="cls-4" x="113.1" y="0">T</tspan><tspan class="cls-1" x="128.54" y="0">A</tspan><tspan class="cls-5" x="145.88" y="0">TE</tspan></text>
      </g>
    </g>
  </g>
</svg>